<svg height="16" viewBox="0 0 16 16" width="16" xmlns="http://www.w3.org/2000/svg"><path d="m8 0c-4.40625 0-8 3.59375-8 8s3.59375 8 8 8 8-3.59375 8-8-3.59375-8-8-8zm3.398438 4.507812c.265624-.027343.527343.050782.734374.21875.425782.351563.488282.980469.140626 1.40625l-4.5 5.5c-.179688.21875-.441407.351563-.722657.367188-.28125.011719-.558593-.09375-.757812-.292969l-2.5-2.5c-.390625-.390625-.390625-1.023437 0-1.414062s1.023437-.390625 1.414062 0l1.71875 1.71875 3.800781-4.644531c.167969-.203126.410157-.335938.671876-.363282zm0 0" fill="#2e3436"/></svg>