<svg fill="none" height="24" viewBox="0 0 24 24" width="24" xmlns="http://www.w3.org/2000/svg"><path d="m18 3h-12c-2.21 0-4 1.78-4 3.97v10.06c0 2.19 1.79 3.97 4 3.97h12c2.21 0 4-1.78 4-3.97v-10.06c0-2.19-1.79-3.97-4-3.97zm-9.5 4.17c1.27 0 2.31 1.04 2.31 2.31s-1.04 2.31-2.31 2.31-2.31-1.04-2.31-2.31 1.04-2.31 2.31-2.31zm3.87 9.49c-.09.1-.23.16-.37.16h-7c-.14 0-.28-.06-.37-.16s-.14-.24-.13-.38c.17-1.68 1.51-3.01 3.19-3.17.53-.05 1.08-.05 1.61 0 1.68.16 3.03 1.49 3.19 3.17.02.14-.03.28-.12.38zm6.63.09h-2c-.41 0-.75-.34-.75-.75s.34-.75.75-.75h2c.41 0 .75.34.75.75s-.34.75-.75.75zm0-4h-4c-.41 0-.75-.34-.75-.75s.34-.75.75-.75h4c.41 0 .75.34.75.75s-.34.75-.75.75zm0-4h-5c-.41 0-.75-.34-.75-.75s.34-.75.75-.75h5c.41 0 .75.34.75.75s-.34.75-.75.75z" fill="#292d32"/></svg>